<svg xmlns="http://www.w3.org/2000/svg" version="1.1" xmlns:xlink="http://www.w3.org/1999/xlink" xmlns:svgjs="http://svgjs.dev/svgjs" width="1500" height="1500" viewBox="0 0 1500 1500"><rect width="1500" height="1500" fill="#ffffff"></rect><g transform="matrix(0.6666666666666666,0,0,0.6666666666666666,249.39393939393938,536.0277338328149)"><svg viewBox="0 0 396 170" data-background-color="#ffffff" preserveAspectRatio="xMidYMid meet" height="643" width="1500" xmlns="http://www.w3.org/2000/svg" xmlns:xlink="http://www.w3.org/1999/xlink"><g id="tight-bounds" transform="matrix(1,0,0,1,0.2400000000000091,-0.14319148890790245)"><svg viewBox="0 0 395.52 170.2863829778158" height="170.2863829778158" width="395.52"><g><svg viewBox="0 0 397.4975999999999 171.13781489270485" height="170.2863829778158" width="395.52"><g><rect width="397.4975999999999" height="4.120081547819567" x="0" y="110.54539313810412" fill="#755bb4" opacity="1" stroke-width="0" stroke="transparent" fill-opacity="1" class="rect-qz-0" data-fill-palette-color="secondary" rx="1%" id="qz-0" data-palette-color="#755bb4"></rect></g><g transform="matrix(1,0,0,1,0.9887999999999693,125.45102847602726)"><svg viewBox="0 0 395.52 45.68678641667759" height="45.68678641667759" width="395.52"><g id="textblocktransform"><svg viewBox="0 0 395.52 45.68678641667759" height="45.68678641667759" width="395.52" id="textblock"><g><svg viewBox="0 0 395.52 45.68678641667759" height="45.68678641667759" width="395.52"><g transform="matrix(1,0,0,1,0,0)"><svg width="395.52" viewBox="3.5 -35.35 381.31 44.050000000000004" height="45.68678641667759" data-palette-color="#e50a0a"><path d="M8.5-13.3L7.55 0 3.5 0 5.95-33.7 11.1-33.7 15.55-21.4 20.95-5.7Q23.85-13.9 26.65-21.4L26.65-21.4 31.3-33.7 36.45-33.7 39.4 0 35.35 0 34.2-13.3 33-28.25Q30.35-20.85 27.55-13.3L27.55-13.3 22.85-0.75 19-0.75 14.55-13.3 9.45-27.95Q9.45-26 8.5-13.3L8.5-13.3ZM68.8-12.6L68.8-12.6Q68.8-6.95 65.6-3.25 62.4 0.45 56.8 0.45L56.8 0.45Q51.35 0.45 48.17-3.23 45-6.9 45-12.5L45-12.5Q45-18.15 48.27-21.93 51.55-25.7 56.8-25.7L56.8-25.7Q62.55-25.7 65.67-22 68.8-18.3 68.8-12.6ZM49.1-12.55L49.1-12.55Q49.1-8.6 51.2-5.83 53.3-3.05 56.8-3.05L56.8-3.05Q60.6-3.05 62.65-5.78 64.7-8.5 64.7-12.55L64.7-12.55Q64.7-16.75 62.75-19.48 60.8-22.2 56.8-22.2L56.8-22.2Q53.2-22.2 51.15-19.4 49.1-16.6 49.1-12.55ZM94.95-25.35L85.9 0 81.05 0 72.2-25.35 76.3-25.35 79.8-14.65 83.5-3.1Q83.95-5.25 87.25-14.65L87.25-14.65 90.85-25.35 94.95-25.35ZM115.09-6.75L115.09-6.75Q115.09-3.5 112.82-1.6 110.54 0.3 106.59 0.3L106.59 0.3Q101.99 0.3 99.14-1.25L99.14-1.25 99.14-5.1Q102.49-3.1 106.34-3.1L106.34-3.1Q108.64-3.1 109.84-4 111.04-4.9 111.04-6.45L111.04-6.45Q111.04-8.25 109.72-9.25 108.39-10.25 105.29-11.5L105.29-11.5Q102.44-12.6 100.72-14.25 98.99-15.9 98.99-18.7L98.99-18.7Q98.99-21.85 101.37-23.73 103.74-25.6 107.29-25.6L107.29-25.6Q111.24-25.6 113.64-24.5L113.64-24.5 113.64-20.75Q111.34-22.15 107.34-22.15L107.34-22.15Q105.34-22.15 104.17-21.23 102.99-20.3 102.99-18.85L102.99-18.85Q102.99-17.95 103.34-17.28 103.69-16.6 104.72-15.95 105.74-15.3 106.22-15.08 106.69-14.85 108.29-14.15L108.29-14.15Q111.49-12.85 113.29-11.2 115.09-9.55 115.09-6.75ZM138.94-5L138.94-1.3Q135.99 0.25 131.74 0.25L131.74 0.25Q125.99 0.25 122.47-3.28 118.94-6.8 118.94-12.6L118.94-12.6Q118.94-18.65 122.09-22.15 125.24-25.65 130.19-25.65L130.19-25.65Q134.94-25.65 137.74-22.6 140.54-19.55 140.54-13.95L140.54-13.95Q140.54-12.35 140.29-11L140.29-11 122.99-11Q123.44-7.25 125.84-5.25 128.24-3.25 132.14-3.25L132.14-3.25Q136.39-3.25 138.94-5L138.94-5ZM130.19-22.2L130.19-22.2Q127.34-22.2 125.34-20.15 123.34-18.1 122.99-14.3L122.99-14.3 136.59-14.3 136.59-15.3Q136.59-18.45 134.89-20.33 133.19-22.2 130.19-22.2ZM161.79-6.75L161.79-6.75Q161.79-3.5 159.51-1.6 157.24 0.3 153.29 0.3L153.29 0.3Q148.69 0.3 145.84-1.25L145.84-1.25 145.84-5.1Q149.19-3.1 153.04-3.1L153.04-3.1Q155.34-3.1 156.54-4 157.74-4.9 157.74-6.45L157.74-6.45Q157.74-8.25 156.41-9.25 155.09-10.25 151.99-11.5L151.99-11.5Q149.14-12.6 147.41-14.25 145.69-15.9 145.69-18.7L145.69-18.7Q145.69-21.85 148.06-23.73 150.44-25.6 153.99-25.6L153.99-25.6Q157.94-25.6 160.34-24.5L160.34-24.5 160.34-20.75Q158.04-22.15 154.04-22.15L154.04-22.15Q152.04-22.15 150.86-21.23 149.69-20.3 149.69-18.85L149.69-18.85Q149.69-17.95 150.04-17.28 150.39-16.6 151.41-15.95 152.44-15.3 152.91-15.08 153.39-14.85 154.99-14.15L154.99-14.15Q158.19-12.85 159.99-11.2 161.79-9.55 161.79-6.75ZM183.88-33.7L183.88 0 179.83 0 179.83-33.7 183.88-33.7ZM206.93-6.75L206.93-6.75Q206.93-3.5 204.66-1.6 202.38 0.3 198.43 0.3L198.43 0.3Q193.83 0.3 190.98-1.25L190.98-1.25 190.98-5.1Q194.33-3.1 198.18-3.1L198.18-3.1Q200.48-3.1 201.68-4 202.88-4.9 202.88-6.45L202.88-6.45Q202.88-8.25 201.56-9.25 200.23-10.25 197.13-11.5L197.13-11.5Q194.28-12.6 192.56-14.25 190.83-15.9 190.83-18.7L190.83-18.7Q190.83-21.85 193.21-23.73 195.58-25.6 199.13-25.6L199.13-25.6Q203.08-25.6 205.48-24.5L205.48-24.5 205.48-20.75Q203.18-22.15 199.18-22.15L199.18-22.15Q197.18-22.15 196-21.23 194.83-20.3 194.83-18.85L194.83-18.85Q194.83-17.95 195.18-17.28 195.53-16.6 196.56-15.95 197.58-15.3 198.06-15.08 198.53-14.85 200.13-14.15L200.13-14.15Q203.33-12.85 205.13-11.2 206.93-9.55 206.93-6.75ZM216.18-13.85L216.18 0 212.23 0 212.28-25.35 216.18-25.35 216.18-20.9Q218.18-25.6 223.08-25.6L223.08-25.6Q223.98-25.6 224.48-25.5L224.48-25.5 224.48-21.6Q223.43-21.95 222.33-21.95L222.33-21.95Q219.68-21.95 217.93-19.5 216.18-17.05 216.18-13.85L216.18-13.85ZM236.33-3.05L236.33-3.05Q239.03-3.05 240.63-4.58 242.23-6.1 242.23-8.45L242.23-8.45 242.23-11.7 237.83-11.7Q234.63-11.7 233.03-10.45 231.43-9.2 231.43-7.3 231.43-5.4 232.68-4.23 233.93-3.05 236.33-3.05ZM242.28 0L242.28-3Q240.33 0.25 235.18 0.25L235.18 0.25Q231.63 0.25 229.45-1.85 227.28-3.95 227.28-7.15L227.28-7.15Q227.28-10.8 230.05-12.83 232.83-14.85 237.63-14.85L237.63-14.85 242.23-14.85 242.23-16.15Q242.23-19.15 240.88-20.68 239.53-22.2 236.33-22.2L236.33-22.2Q232.28-22.2 229.13-20.05L229.13-20.05 229.13-24Q231.98-25.75 236.63-25.75L236.63-25.75Q246.18-25.75 246.18-16.05L246.18-16.05 246.18 0 242.28 0ZM273.32-25.35L264.17-0.65Q262.22 4.5 259.55 6.6 256.87 8.7 253.42 8.7L253.42 8.7Q252.12 8.7 251.32 8.45L251.32 8.45 251.32 4.9Q252.07 5.1 253.02 5.1L253.02 5.1Q258.07 5.1 260.17-0.65L260.17-0.65 249.92-25.35 254.37-25.35 257.67-17 262.12-5.5Q262.52-6.8 266.12-17L266.12-17 269.07-25.35 273.32-25.35ZM296.32-5L296.32-1.3Q293.37 0.25 289.12 0.25L289.12 0.25Q283.37 0.25 279.85-3.28 276.32-6.8 276.32-12.6L276.32-12.6Q276.32-18.65 279.47-22.15 282.62-25.65 287.57-25.65L287.57-25.65Q292.32-25.65 295.12-22.6 297.92-19.55 297.92-13.95L297.92-13.95Q297.92-12.35 297.67-11L297.67-11 280.37-11Q280.82-7.25 283.22-5.25 285.62-3.25 289.52-3.25L289.52-3.25Q293.77-3.25 296.32-5L296.32-5ZM287.57-22.2L287.57-22.2Q284.72-22.2 282.72-20.15 280.72-18.1 280.37-14.3L280.37-14.3 293.97-14.3 293.97-15.3Q293.97-18.45 292.27-20.33 290.57-22.2 287.57-22.2ZM308.07-35.35L308.07 0 304.12 0 304.12-35.35 308.07-35.35ZM335.72-25.35L326.56-0.65Q324.62 4.5 321.94 6.6 319.27 8.7 315.81 8.7L315.81 8.7Q314.52 8.7 313.72 8.45L313.72 8.45 313.72 4.9Q314.47 5.1 315.42 5.1L315.42 5.1Q320.47 5.1 322.56-0.65L322.56-0.65 312.31-25.35 316.77-25.35 320.06-17 324.52-5.5Q324.92-6.8 328.52-17L328.52-17 331.47-25.35 335.72-25.35ZM347.96-3.05L347.96-3.05Q350.66-3.05 352.26-4.58 353.86-6.1 353.86-8.45L353.86-8.45 353.86-11.7 349.46-11.7Q346.26-11.7 344.66-10.45 343.06-9.2 343.06-7.3 343.06-5.4 344.31-4.23 345.56-3.05 347.96-3.05ZM353.91 0L353.91-3Q351.96 0.25 346.81 0.25L346.81 0.25Q343.26 0.25 341.09-1.85 338.91-3.95 338.91-7.15L338.91-7.15Q338.91-10.8 341.69-12.83 344.46-14.85 349.26-14.85L349.26-14.85 353.86-14.85 353.86-16.15Q353.86-19.15 352.51-20.68 351.16-22.2 347.96-22.2L347.96-22.2Q343.91-22.2 340.76-20.05L340.76-20.05 340.76-24Q343.61-25.75 348.26-25.75L348.26-25.75Q357.81-25.75 357.81-16.05L357.81-16.05 357.81 0 353.91 0ZM384.81-17.45L384.81 0 380.86 0 380.86-16.4Q380.86-19.2 379.44-20.68 378.01-22.15 375.71-22.15L375.71-22.15Q372.86-22.15 370.79-19.95 368.71-17.75 368.71-13.85L368.71-13.85 368.71 0 364.81 0 364.81-25.35 368.71-25.35 368.71-20.95Q370.96-25.7 376.71-25.7L376.71-25.7Q380.41-25.7 382.61-23.45 384.81-21.2 384.81-17.45L384.81-17.45Z" opacity="1" transform="matrix(1,0,0,1,0,0)" fill="#e50a0a" class="wordmark-text-0" data-fill-palette-color="primary" id="text-0"></path></svg></g></svg></g></svg></g></svg></g><g transform="matrix(1,0,0,1,133.88704573596084,0)"><svg viewBox="0 0 129.72350852807824 99.75983934800054" height="99.75983934800054" width="129.72350852807824"><g><svg xmlns="http://www.w3.org/2000/svg" xmlns:xlink="http://www.w3.org/1999/xlink" version="1.1" x="8" y="0" viewBox="4.75 10.17 86.5 75.87899999999998" enable-background="new 0 0 96 96" xml:space="preserve" height="99.75983934800054" width="113.72350852807824" class="icon-icon-0" data-fill-palette-color="accent" id="icon-0"><polygon points="6.03,38.034 19.963,24.102 6.03,10.17 4.97,11.23 17.842,24.102 4.97,36.973 " fill="#e3390b" data-fill-palette-color="accent"></polygon><rect x="27.418" y="16.535" width="12.033" height="1.5" fill="#e3390b" data-fill-palette-color="accent"></rect><rect x="46.939" y="16.535" width="17.917" height="1.5" fill="#e3390b" data-fill-palette-color="accent"></rect><rect x="74.523" y="16.535" width="3.155" height="1.5" fill="#e3390b" data-fill-palette-color="accent"></rect><rect x="86.598" y="16.535" width="3.902" height="1.5" fill="#e3390b" data-fill-palette-color="accent"></rect><rect x="78.468" y="23.352" width="12.032" height="1.5" fill="#e3390b" data-fill-palette-color="accent"></rect><rect x="27.418" y="23.352" width="3.902" height="1.5" fill="#e3390b" data-fill-palette-color="accent"></rect><rect x="74.523" y="30.169" width="3.155" height="1.5" fill="#e3390b" data-fill-palette-color="accent"></rect><rect x="86.598" y="30.169" width="3.902" height="1.5" fill="#e3390b" data-fill-palette-color="accent"></rect><rect x="5.5" y="44.059" width="16.213" height="1.5" fill="#e3390b" data-fill-palette-color="accent"></rect><rect x="68.972" y="44.059" width="4.251" height="1.5" fill="#e3390b" data-fill-palette-color="accent"></rect><rect x="85.242" y="44.059" width="5.258" height="1.5" fill="#e3390b" data-fill-palette-color="accent"></rect><rect x="74.287" y="53.245" width="16.213" height="1.5" fill="#e3390b" data-fill-palette-color="accent"></rect><rect x="22.776" y="53.245" width="4.252" height="1.5" fill="#e3390b" data-fill-palette-color="accent"></rect><rect x="5.5" y="53.245" width="5.258" height="1.5" fill="#e3390b" data-fill-palette-color="accent"></rect><rect x="85.242" y="62.43" width="5.258" height="1.5" fill="#e3390b" data-fill-palette-color="accent"></rect><path d="M76.094 61.325c0-3.973-6.056-6.455-11.898-7.927v-0.153h-0.617c-4.032-0.971-7.856-1.466-9.387-1.64l-1.664-5.265c0.625-0.22 1.233-0.477 1.813-0.781h1.605v-0.991c3.491-2.491 5.779-6.564 5.779-11.169 0-0.587-0.049-1.162-0.121-1.729h3.252v-1.5h-3.531c-0.479-1.972-1.376-3.779-2.605-5.317h12.257v-1.5H57.32C54.87 21.077 51.6 19.673 48 19.673c-6.454 0-11.868 4.484-13.326 10.496h-7.255v1.5h6.977c-0.072 0.568-0.121 1.143-0.121 1.729 0 4.301 1.992 8.142 5.098 10.66h-7.569v1.5h9.855c0.576 0.301 1.177 0.557 1.797 0.775l-1.665 5.271c-3.817 0.434-21.903 2.854-21.903 9.72 0 0.351-0.011 0.722-0.029 1.105H5.5v1.5h14.255c-0.534 5.949-2.533 14.19-3.084 16.389H4.75v5.731h86.5v-5.731H79.312C78.673 77.775 76.094 67.135 76.094 61.325zM42.035 44.059c-3.73-2.096-6.26-6.085-6.26-10.66 0-0.588 0.056-1.163 0.137-1.729 0.073-0.511 0.176-1.011 0.31-1.5 0.677-2.466 2.097-4.627 4.019-6.21 0.261-0.215 0.534-0.415 0.812-0.607 1.975-1.37 4.368-2.179 6.948-2.179s4.973 0.809 6.948 2.179c0.64 0.444 1.235 0.946 1.778 1.5 1.434 1.463 2.495 3.286 3.053 5.317 0.134 0.489 0.237 0.989 0.31 1.5 0.081 0.566 0.137 1.141 0.137 1.729 0 4.575-2.53 8.564-6.26 10.66-0.656 0.369-1.351 0.675-2.075 0.919-0.239 0.081-0.482 0.15-0.728 0.216-0.254 0.068-0.508 0.139-0.769 0.191-0.374 0.074-0.752 0.134-1.137 0.174-0.413 0.042-0.833 0.064-1.256 0.064-0.371 0-0.737-0.023-1.1-0.056-0.052-0.005-0.105-0.003-0.157-0.009-0.42-0.043-0.834-0.109-1.241-0.194-0.396-0.083-0.786-0.185-1.167-0.305C43.528 44.806 42.76 44.466 42.035 44.059zM21.261 63.93c0.045-0.518 0.078-1.019 0.099-1.5 0.017-0.381 0.027-0.753 0.027-1.105 0-4.417 11.866-7.019 18.666-7.984 0.24-0.034 0.474-0.066 0.7-0.096 0.617-0.082 1.186-0.149 1.683-0.201l0.489-0.051 1.97-6.236c1 0.232 2.036 0.367 3.104 0.367 1.063 0 2.093-0.133 3.087-0.363l1.97 6.232 0.489 0.051c0.497 0.052 1.066 0.12 1.683 0.201 2.247 0.297 5.184 0.795 8.094 1.5 5.697 1.38 11.271 3.553 11.271 6.58 0 5.807 2.393 15.873 3.171 18.995H66.38V63.581c0-2.28-1.855-4.135-4.135-4.135H33.755c-2.28 0-4.135 1.855-4.135 4.135v16.738H18.217C18.889 77.626 20.76 69.768 21.261 63.93zM64.88 63.581v16.738H31.12V63.581c0-1.453 1.182-2.635 2.635-2.635h28.489C63.698 60.946 64.88 62.128 64.88 63.581zM89.75 84.551H6.25v-2.731h83.5V84.551z" fill="#e3390b" data-fill-palette-color="accent"></path></svg></g></svg></g><g><rect width="57.35392573596087" height="4.120081547819567" y="94.63975780018097" x="263.6105542640391" fill="#755bb4" data-fill-palette-color="secondary"></rect><rect width="57.35392573596087" height="4.120081547819567" y="94.63975780018097" x="76.53311999999997" fill="#755bb4" data-fill-palette-color="secondary"></rect></g></svg></g><defs></defs></svg><rect width="395.52" height="170.2863829778158" fill="none" stroke="none" visibility="hidden"></rect></g></svg></g></svg>